<svg width="49" height="53" viewBox="0 0 49 53" fill="none" xmlns="http://www.w3.org/2000/svg">
<path d="M20.249 12.022C16.3208 10.1465 10.8301 9.22776 3.47921 9.19514C2.78595 9.18572 2.10628 9.38787 1.53086 9.77464C1.05854 10.0939 0.671912 10.5243 0.404973 11.028C0.138035 11.5318 -0.00103111 12.0934 5.75576e-06 12.6635V43.7698C5.75576e-06 45.8725 1.49607 47.4588 3.47921 47.4588C11.2063 47.4588 18.9573 48.1807 23.5999 52.5689C23.6634 52.6292 23.7432 52.6695 23.8295 52.6848C23.9157 52.7001 24.0045 52.6898 24.0849 52.655C24.1653 52.6203 24.2337 52.5627 24.2816 52.4894C24.3295 52.4161 24.3549 52.3303 24.3545 52.2427V15.5904C24.3546 15.3431 24.3017 15.0986 24.1993 14.8735C24.0969 14.6484 23.9474 14.448 23.7608 14.2857C22.6974 13.3765 21.5161 12.6151 20.249 12.022V12.022Z" fill="#FF4800"/>
<path d="M21.0896 7.81322C18.2035 5.92729 14.1696 5.00345 8.76892 4.97065C8.25959 4.96118 7.76024 5.16446 7.33748 5.55338C6.99047 5.8744 6.70642 6.30721 6.5103 6.81375C6.31418 7.32028 6.21201 7.88501 6.21277 8.45826V39.7374C6.21277 41.8518 7.31192 43.447 8.76892 43.447C14.446 43.447 20.1406 44.1729 23.5515 48.5854C23.5981 48.6461 23.6568 48.6866 23.7201 48.702C23.7835 48.7174 23.8487 48.707 23.9078 48.6721C23.9669 48.6371 24.0171 48.5792 24.0523 48.5055C24.0875 48.4318 24.1061 48.3455 24.1058 48.2575V11.4014C24.106 11.1527 24.0671 10.9069 23.9919 10.6806C23.9166 10.4543 23.8068 10.2527 23.6697 10.0895C22.8884 9.17528 22.0205 8.40963 21.0896 7.81322V7.81322Z" fill="white"/>
<g filter="url(#filter0_d_4_53)">
<path d="M22.0951 2.84288C20.171 0.956949 17.4817 0.0331154 13.8813 0.000316524C13.5417 -0.00915458 13.2088 0.194123 12.927 0.583043C12.6957 0.904066 12.5063 1.33688 12.3755 1.84341C12.2448 2.34994 12.1767 2.91467 12.1772 3.48793V34.7671C12.1772 36.8815 12.91 38.4766 13.8813 38.4766C17.666 38.4766 21.4624 39.2026 23.7363 43.6151C23.7674 43.6758 23.8065 43.7163 23.8488 43.7317C23.891 43.7471 23.9345 43.7367 23.9739 43.7017C24.0132 43.6668 24.0467 43.6089 24.0702 43.5351C24.0937 43.4614 24.1061 43.3752 24.1059 43.2871V6.43107C24.106 6.18241 24.0801 5.9366 24.0299 5.71027C23.9798 5.48393 23.9065 5.28234 23.8151 5.11912C23.2943 4.20495 22.7157 3.43929 22.0951 2.84288V2.84288Z" fill="white"/>
</g>
<path d="M28.4599 12.022C32.3882 10.1465 37.8788 9.22776 45.2297 9.19514C45.923 9.18572 46.6026 9.38787 47.1781 9.77464C47.6504 10.0939 48.037 10.5243 48.3039 11.028C48.5709 11.5318 48.71 12.0934 48.7089 12.6635V43.7698C48.7089 45.8725 47.2129 47.4588 45.2297 47.4588C37.5026 47.4588 29.7516 48.1807 25.109 52.5689C25.0455 52.6292 24.9657 52.6695 24.8795 52.6848C24.7932 52.7001 24.7044 52.6898 24.624 52.655C24.5436 52.6203 24.4752 52.5627 24.4273 52.4894C24.3794 52.4161 24.354 52.3303 24.3545 52.2427V15.5904C24.3543 15.3431 24.4072 15.0986 24.5096 14.8735C24.612 14.6484 24.7615 14.448 24.9481 14.2857C26.0115 13.3765 27.1928 12.6151 28.4599 12.022V12.022Z" fill="#FF4800"/>
<path d="M27.6194 7.81322C30.5054 5.92729 34.5393 5.00345 39.94 4.97065C40.4493 4.96118 40.9487 5.16446 41.3714 5.55338C41.7185 5.8744 42.0025 6.30721 42.1986 6.81375C42.3947 7.32028 42.4969 7.88501 42.4962 8.45826V39.7374C42.4962 41.8518 41.397 43.447 39.94 43.447C34.2629 43.447 28.5683 44.1729 25.1575 48.5854C25.1108 48.6461 25.0522 48.6866 24.9888 48.702C24.9254 48.7174 24.8602 48.707 24.8011 48.6721C24.7421 48.6371 24.6918 48.5792 24.6566 48.5055C24.6214 48.4318 24.6028 48.3455 24.6031 48.2575V11.4014C24.603 11.1527 24.6418 10.9069 24.7171 10.6806C24.7923 10.4543 24.9022 10.2527 25.0392 10.0895C25.8205 9.17528 26.6884 8.40963 27.6194 7.81322V7.81322Z" fill="white"/>
<g filter="url(#filter1_d_4_53)">
<path d="M26.6139 2.84288C28.5379 0.956949 31.2272 0.0331154 34.8276 0.000316524C35.1672 -0.00915458 35.5001 0.194123 35.7819 0.583043C36.0133 0.904066 36.2026 1.33688 36.3334 1.84341C36.4641 2.34994 36.5322 2.91467 36.5317 3.48793V34.7671C36.5317 36.8815 35.799 38.4766 34.8276 38.4766C31.0429 38.4766 27.2465 39.2026 24.9726 43.6151C24.9415 43.6758 24.9024 43.7163 24.8602 43.7317C24.8179 43.7471 24.7744 43.7367 24.7351 43.7017C24.6957 43.6668 24.6622 43.6089 24.6387 43.5351C24.6152 43.4614 24.6028 43.3752 24.603 43.2871V6.43107C24.6029 6.18241 24.6288 5.9366 24.679 5.71027C24.7292 5.48393 24.8024 5.28234 24.8938 5.11912C25.4147 4.20495 25.9932 3.43929 26.6139 2.84288V2.84288Z" fill="white"/>
</g>
<defs>
<filter id="filter0_d_4_53" x="8.20095" y="0" width="19.8812" height="51.6911" filterUnits="userSpaceOnUse" color-interpolation-filters="sRGB">
<feFlood flood-opacity="0" result="BackgroundImageFix"/>
<feColorMatrix in="SourceAlpha" type="matrix" values="0 0 0 0 0 0 0 0 0 0 0 0 0 0 0 0 0 0 127 0" result="hardAlpha"/>
<feOffset dy="3.97624"/>
<feGaussianBlur stdDeviation="1.98812"/>
<feComposite in2="hardAlpha" operator="out"/>
<feColorMatrix type="matrix" values="0 0 0 0 0 0 0 0 0 0 0 0 0 0 0 0 0 0 0.25 0"/>
<feBlend mode="normal" in2="BackgroundImageFix" result="effect1_dropShadow_4_53"/>
<feBlend mode="normal" in="SourceGraphic" in2="effect1_dropShadow_4_53" result="shape"/>
</filter>
<filter id="filter1_d_4_53" x="20.6268" y="0" width="19.8812" height="51.6911" filterUnits="userSpaceOnUse" color-interpolation-filters="sRGB">
<feFlood flood-opacity="0" result="BackgroundImageFix"/>
<feColorMatrix in="SourceAlpha" type="matrix" values="0 0 0 0 0 0 0 0 0 0 0 0 0 0 0 0 0 0 127 0" result="hardAlpha"/>
<feOffset dy="3.97624"/>
<feGaussianBlur stdDeviation="1.98812"/>
<feComposite in2="hardAlpha" operator="out"/>
<feColorMatrix type="matrix" values="0 0 0 0 0 0 0 0 0 0 0 0 0 0 0 0 0 0 0.25 0"/>
<feBlend mode="normal" in2="BackgroundImageFix" result="effect1_dropShadow_4_53"/>
<feBlend mode="normal" in="SourceGraphic" in2="effect1_dropShadow_4_53" result="shape"/>
</filter>
</defs>
</svg>
