<svg width="500" height="95" viewBox="0 0 500 95" fill="none" xmlns="http://www.w3.org/2000/svg">
<path d="M74.6 22.4C80.4667 22.4 84.9667 23.8667 88.1 26.8C91.2333 29.6667 92.8 33.7 92.8 38.9C92.8 40.7 92.6 42.6667 92.2 44.8L86.1 75H81.1L87.2 44.8C87.5333 43.2667 87.7 41.5667 87.7 39.7C87.7 35.6333 86.5 32.5 84.1 30.3C81.7 28.0333 78.2 26.9 73.6 26.9C67.8667 26.9 63.0667 28.5 59.2 31.7C55.4 34.8333 52.9 39.4 51.7 45.4L45.7 75H40.7L46.8 44.8C47.1333 43.2667 47.3 41.5667 47.3 39.7C47.3 35.6333 46.1 32.5 43.7 30.3C41.3 28.0333 37.8 26.9 33.2 26.9C27.4 26.9 22.5667 28.6 18.7 32C14.8333 35.3333 12.2667 40.2 11 46.6L5.3 75H0.3L10.7 22.8H15.6L13.6 32.6C16.0667 29.1333 19.0667 26.5667 22.6 24.9C26.1333 23.2333 30.1 22.4 34.5 22.4C39.3 22.4 43.1667 23.4333 46.1 25.5C49.0333 27.5 50.9667 30.3667 51.9 34.1C54.5 30.2333 57.7333 27.3333 61.6 25.4C65.4667 23.4 69.8 22.4 74.6 22.4ZM164.443 22.8L155.143 69.4C153.41 78.2667 150.143 84.7 145.343 88.7C140.543 92.7667 133.91 94.8 125.443 94.8C120.643 94.8 116.31 94.0667 112.443 92.6C108.576 91.2 105.376 89.2 102.843 86.6L106.043 82.9C108.176 85.2333 110.943 87.0333 114.343 88.3C117.743 89.6333 121.576 90.3 125.843 90.3C132.776 90.3 138.21 88.6667 142.143 85.4C146.076 82.1333 148.71 77.0667 150.043 70.2L151.643 62.4C149.043 65.8 145.81 68.4333 141.943 70.3C138.076 72.1667 133.776 73.1 129.043 73.1C122.043 73.1 116.476 71.2333 112.343 67.5C108.276 63.7667 106.243 58.7 106.243 52.3C106.243 46.7 107.51 41.6333 110.043 37.1C112.576 32.5 116.11 28.9 120.643 26.3C125.176 23.7 130.276 22.4 135.943 22.4C141.41 22.4 145.976 23.5667 149.643 25.9C153.31 28.2333 155.776 31.6333 157.043 36.1L159.643 22.8H164.443ZM129.943 68.6C134.676 68.6 138.91 67.5333 142.643 65.4C146.376 63.2 149.31 60.2 151.443 56.4C153.576 52.5333 154.643 48.2 154.643 43.4C154.643 38.2 152.976 34.1667 149.643 31.3C146.376 28.3667 141.81 26.9 135.943 26.9C131.21 26.9 126.976 28 123.243 30.2C119.51 32.3333 116.576 35.3333 114.443 39.2C112.31 43 111.243 47.3 111.243 52.1C111.243 57.3 112.876 61.3667 116.143 64.3C119.476 67.1667 124.076 68.6 129.943 68.6ZM230.507 38.5C234.507 39.9 237.64 42.1 239.907 45.1C242.174 48.0333 243.307 51.6 243.307 55.8C243.307 61.9333 240.84 66.6667 235.907 70C230.974 73.3333 223.84 75 214.507 75H176.707V5H212.507C221.44 5 228.24 6.66666 232.907 10C237.574 13.2667 239.907 17.7 239.907 23.3C239.907 26.6333 239.074 29.6333 237.407 32.3C235.807 34.9 233.507 36.9667 230.507 38.5ZM196.307 19.3V32.8H209.907C216.574 32.8 219.907 30.5333 219.907 26C219.907 21.5333 216.574 19.3 209.907 19.3H196.307ZM212.907 60.7C219.84 60.7 223.307 58.3333 223.307 53.6C223.307 48.8667 219.84 46.5 212.907 46.5H196.307V60.7H212.907ZM279.863 75.9C274.063 75.9 268.829 74.7 264.163 72.3C259.496 69.9 255.829 66.5667 253.162 62.3C250.563 58.0333 249.263 53.2 249.263 47.8C249.263 42.4667 250.563 37.6667 253.162 33.4C255.829 29.1333 259.463 25.8333 264.063 23.5C268.729 21.1 273.996 19.9 279.863 19.9C285.729 19.9 290.996 21.1 295.663 23.5C300.329 25.8333 303.963 29.1333 306.563 33.4C309.163 37.6 310.463 42.4 310.463 47.8C310.463 53.2 309.163 58.0333 306.563 62.3C303.963 66.5667 300.329 69.9 295.663 72.3C290.996 74.7 285.729 75.9 279.863 75.9ZM279.863 60.8C283.196 60.8 285.929 59.6667 288.063 57.4C290.196 55.0667 291.263 51.8667 291.263 47.8C291.263 43.8 290.196 40.6667 288.063 38.4C285.929 36.1333 283.196 35 279.863 35C276.529 35 273.796 36.1333 271.663 38.4C269.529 40.6667 268.463 43.8 268.463 47.8C268.463 51.8667 269.529 55.0667 271.663 57.4C273.796 59.6667 276.529 60.8 279.863 60.8ZM346.464 75.9C340.664 75.9 335.431 74.7 330.764 72.3C326.097 69.9 322.431 66.5667 319.764 62.3C317.164 58.0333 315.864 53.2 315.864 47.8C315.864 42.4667 317.164 37.6667 319.764 33.4C322.431 29.1333 326.064 25.8333 330.664 23.5C335.331 21.1 340.597 19.9 346.464 19.9C352.331 19.9 357.597 21.1 362.264 23.5C366.931 25.8333 370.564 29.1333 373.164 33.4C375.764 37.6 377.064 42.4 377.064 47.8C377.064 53.2 375.764 58.0333 373.164 62.3C370.564 66.5667 366.931 69.9 362.264 72.3C357.597 74.7 352.331 75.9 346.464 75.9ZM346.464 60.8C349.797 60.8 352.531 59.6667 354.664 57.4C356.797 55.0667 357.864 51.8667 357.864 47.8C357.864 43.8 356.797 40.6667 354.664 38.4C352.531 36.1333 349.797 35 346.464 35C343.131 35 340.397 36.1333 338.264 38.4C336.131 40.6667 335.064 43.8 335.064 47.8C335.064 51.8667 336.131 55.0667 338.264 57.4C340.397 59.6667 343.131 60.8 346.464 60.8ZM410.466 56L404.866 61.7V75H385.866V0.799996H404.866V39.7L424.266 20.8H446.766L424.266 44L448.666 75H425.666L410.466 56ZM472.265 75.9C467.732 75.9 463.265 75.4 458.865 74.4C454.465 73.3333 450.932 71.9667 448.265 70.3L453.965 57.3C456.432 58.8333 459.365 60.0667 462.765 61C466.165 61.8667 469.532 62.3 472.865 62.3C475.932 62.3 478.098 62 479.365 61.4C480.698 60.7333 481.365 59.8 481.365 58.6C481.365 57.4 480.565 56.5667 478.965 56.1C477.432 55.5667 474.965 55.0667 471.565 54.6C467.232 54.0667 463.532 53.3667 460.465 52.5C457.465 51.6333 454.865 50.0333 452.665 47.7C450.465 45.3667 449.365 42.1 449.365 37.9C449.365 34.4333 450.398 31.3667 452.465 28.7C454.532 25.9667 457.532 23.8333 461.465 22.3C465.465 20.7 470.232 19.9 475.765 19.9C479.698 19.9 483.598 20.3 487.465 21.1C491.332 21.9 494.565 23.0333 497.165 24.5L491.465 37.4C486.665 34.7333 481.465 33.4 475.865 33.4C472.865 33.4 470.665 33.7667 469.265 34.5C467.865 35.1667 467.165 36.0667 467.165 37.2C467.165 38.4667 467.932 39.3667 469.465 39.9C470.998 40.3667 473.532 40.8667 477.065 41.4C481.532 42.0667 485.232 42.8333 488.165 43.7C491.098 44.5667 493.632 46.1667 495.765 48.5C497.965 50.7667 499.065 53.9667 499.065 58.1C499.065 61.5 498.032 64.5667 495.965 67.3C493.898 69.9667 490.832 72.0667 486.765 73.6C482.765 75.1333 477.932 75.9 472.265 75.9Z" fill="#FF4800"/>
</svg>
