<svg width="32" height="32" viewBox="0 0 32 32" fill="none" xmlns="http://www.w3.org/2000/svg">
<path d="M9.33334 24C7.86001 24 6.68001 25.1934 6.68001 26.6667C6.68001 28.14 7.86001 29.3334 9.33334 29.3334C10.8067 29.3334 12 28.14 12 26.6667C12 25.1934 10.8067 24 9.33334 24ZM1.33334 2.66669V5.33335H4.00001L8.79334 15.4467L6.99334 18.7134C6.78668 19.1 6.66668 19.5334 6.66668 20C6.66668 21.4734 7.86001 22.6667 9.33334 22.6667H25.3333V20H9.90001C9.71334 20 9.56668 19.8534 9.56668 19.6667C9.56668 19.6067 9.58001 19.5534 9.60668 19.5067L10.8 17.3334H20.7333C21.7333 17.3334 22.6067 16.78 23.0667 15.96L27.8333 7.30669C27.94 7.12002 28 6.90002 28 6.66669C28 5.92669 27.4 5.33335 26.6667 5.33335H6.95334L5.68668 2.66669H1.33334ZM22.6667 24C21.1933 24 20.0133 25.1934 20.0133 26.6667C20.0133 28.14 21.1933 29.3334 22.6667 29.3334C24.14 29.3334 25.3333 28.14 25.3333 26.6667C25.3333 25.1934 24.14 24 22.6667 24Z" fill="white"/>
</svg>
